<?xml version="1.0" encoding="iso-8859-1"?>
<!-- Uploaded to: SVG Repo, www.svgrepo.com, Generator: SVG Repo Mixer Tools -->
<svg fill="#000000" height="800px" width="800px" version="1.1" id="Capa_1" xmlns="http://www.w3.org/2000/svg" xmlns:xlink="http://www.w3.org/1999/xlink" 
	 viewBox="0 0 489.147 489.147" xml:space="preserve">
<g>
	<g>
		<g>
			<path d="M181.474,441.747c68.4,0,124.3-56.7,127.4-127.8h-254.8C57.174,385.047,113.074,441.747,181.474,441.747z
				 M248.674,342.347h3.5c5.4,0,9.7,4.3,9.7,9.7c0,5.4-4.3,9.7-9.7,9.7h-3.5c-5.4,0-9.7-4.3-9.7-9.7
				S243.174,342.347,248.674,342.347z M224.174,376.147h3.5c5.4,0,9.7,4.3,9.7,9.7c0,5.4-4.3,9.7-9.7,9.7h-3.5
				c-5.4,0-9.7-4.3-9.7-9.7C214.474,380.347,218.774,376.147,224.174,376.147z M195.474,411.847c-1.2,4.3-5.8,8.4-13.6,6.6
				c-5.4,0.8-10.1-2.7-11.3-7.8c-0.8-5.4,2.7-10.1,7.8-11.3c3.5-0.8,7-0.4,10.5,0.8
				C194.274,401.347,196.974,406.847,195.474,411.847z M165.874,346.947c1.6-5,7.4-7.8,12.4-5.8l1.6,0.4c5,1.6,7.8,7.4,6.2,12.4
				c-0.7,4.1-7.7,8.8-14.4,5.4C167.074,357.447,164.374,352.047,165.874,346.947z M128.274,376.147c5.8-0.4,11.7,3.1,14.4,8.5
				c2.3,4.7,0.4,10.5-4.7,12.8c-4.8,2.1-9.7-0.4-11.7-2.7c-4.3-0.8-7.4-4.7-7.4-8.9
				C118.574,380.747,122.774,376.147,128.274,376.147z M88.274,360.147c-3.5-1.9-5.8-6.2-4.7-10.5c1.2-5,6.2-8.5,11.7-7.4
				c5,1.2,8.9,4.7,10.5,9.7s-1.2,10.5-6.2,12C93.874,365.747,90.174,362.947,88.274,360.147z"/>
			<path d="M356.674,314.347h-28c-3.1,81.6-68,147.2-146.8,147.2c-79.3,0-143.7-65.2-146.8-147.2h-28.4
				c0,96.7,78.5,174.8,174.8,174.8S356.674,410.647,356.674,314.347z"/>
			<path d="M461.474,108.547h-47.8l6.2-56.3l53.7-34.6c4.7-2.7,5.8-8.9,2.7-13.2c-2.7-4.7-8.9-5.8-13.2-2.7l-57.1,36.8
				c-2.3,1.6-3.9,4.3-4.3,7l-6.6,61.8c0,0.4,0,0.8,0,1.2h-189.5l-20.2,45.4h297.1L461.474,108.547z"/>
			<path d="M212.874,294.947h162.7v19.4c0,76.9-45.1,143.3-109.9,174.8h166.6l35-315.8h-268L212.874,294.947z"/>
		</g>
	</g>
</g>
</svg>