<?xml version="1.0" encoding="iso-8859-1"?>
<!-- Uploaded to: SVG Repo, www.svgrepo.com, Generator: SVG Repo Mixer Tools -->
<svg height="800px" width="800px" version="1.1" id="Layer_1" xmlns="http://www.w3.org/2000/svg" xmlns:xlink="http://www.w3.org/1999/xlink" 
	 viewBox="0 0 512 512" xml:space="preserve">
<path style="fill:#CAEEC5;" d="M512,256c0,141.384-114.616,256-256,256S0,397.384,0,256S114.616,0,256,0S512,114.616,512,256z"/>
<path style="fill:#981700;" d="M434.268,341.034l-55.631-73.232c-18.002-16.087-40.735-26.268-70.38-26.268
	c-7.206,0-14.353,0-21.523,0c-7.17,0-34.659,0-41.865,0c-29.645,0-52.378,10.181-70.38,26.268l-7.533,9.916l-39.513,76.149v154.818
	h305.362v-50.764l0,0l53.537-39.989C482.458,408.396,456.193,371.535,434.268,341.034z"/>
<path style="fill:#7A1700;" d="M434.268,341.034l-55.631-73.232c-18.002-16.087-40.735-26.268-70.38-26.268
	c-7.206,0-14.353,0-21.523,0c-1.78,0-4.812,0-8.474,0v267.15h154.545v-50.764l0,0l53.537-39.989
	C482.458,408.396,456.193,371.535,434.268,341.034z"/>
<path style="fill:#C4C2BF;" d="M124.616,400.294v-138.52l154.091,32.804l154.099-32.804v196.148H124.616V400.294z"/>
<path style="fill:#DDDAD4;" d="M278.707,294.577l154.099-32.804v196.148H278.261V294.482L278.707,294.577z"/>
<path style="fill:#663310;" d="M512,503.154c0,4.885-3.987,8.846-8.904,8.846H36.518c-4.917,0-8.904-3.961-8.904-8.846
	s3.987-8.846,8.904-8.846h466.578C508.013,494.307,512,498.267,512,503.154z"/>
<path style="fill:#CF8F3D;" d="M278.707,55.292c33.783,0,61.17,27.282,61.17,60.934c0,33.654-27.386,60.935-61.17,60.935
	s-61.164-27.282-61.164-60.935C217.543,82.573,244.924,55.292,278.707,55.292L278.707,55.292z"/>
<path style="fill:#B76700;" d="M339.877,116.226c0,33.654-27.386,60.935-61.17,60.935c-24.859,0-46.236-14.78-55.804-35.994
	c7.603,3.378,16.018,5.271,24.881,5.271c33.783,0,61.17-27.282,61.17-60.936c0-8.889-1.927-17.325-5.36-24.939
	C324.97,70.064,339.877,91.404,339.877,116.226z"/>
<path style="fill:#415E5C;" d="M155.933,393.069v55.044c0,30.275-24.862,55.043-55.251,55.043h-0.006
	c-30.389,0-55.254-24.769-55.254-55.043V424.58H24.671c-3.783,0-6.862,3.079-6.862,6.864v15.711c0,4.885-3.987,8.846-8.904,8.846
	S0,452.04,0,447.155v-15.711c0-13.541,11.067-24.557,24.671-24.557h20.752V393.07h110.511V393.069z"/>
<path style="fill:#5B7F81;" d="M95.88,448.113v-55.044h60.053v55.044c0,21.232-12.237,39.743-30.025,48.915
	C108.119,487.857,95.88,469.346,95.88,448.113z"/>
<path style="fill:#FFBB5E;" d="M83.527,312.964c-9.614,14.458-13.734,21.941-2.426,33.987c3.355,3.572,2.045,9.17-1.553,12.503
	c-1.715,1.589-3.896,2.376-6.071,2.376c-2.384,0-4.759-0.945-6.515-2.814c-21.377-22.772-7.566-41.866,1.705-55.808
	c9.614-14.457,12.622-21.94,1.315-33.987c-3.355-3.573-3.158-9.171,0.44-12.504c3.595-3.332,9.229-3.138,12.585,0.436
	C104.385,279.928,92.799,299.022,83.527,312.964z"/>
<path style="fill:#9E9E9E;" d="M395.028,329.787l-69.299,15.561c-0.661,0.149-1.321,0.22-1.971,0.22
	c-4.069,0-7.742-2.789-8.677-6.899c-1.085-4.766,1.924-9.502,6.722-10.578l69.299-15.561c4.801-1.081,9.564,1.913,10.647,6.678
	C402.835,323.974,399.825,328.711,395.028,329.787z M356.452,367.441l-34.649,7.779c-4.797,1.077-7.807,5.815-6.722,10.579
	c0.935,4.109,4.608,6.899,8.676,6.899c0.65,0,1.311-0.071,1.971-0.22l34.649-7.779c4.797-1.077,7.807-5.815,6.722-10.579
	C366.018,369.353,361.253,366.36,356.452,367.441z M235.619,330.902l-34.656-7.78c-4.793-1.079-9.564,1.912-10.647,6.678
	c-1.085,4.766,1.924,9.502,6.722,10.581l34.656,7.78c0.661,0.148,1.321,0.219,1.971,0.219c4.069,0,7.743-2.789,8.678-6.899
	C243.426,336.717,240.416,331.981,235.619,330.902z M235.619,375.137l-34.656-7.78c-4.793-1.08-9.564,1.911-10.647,6.678
	c-1.085,4.766,1.924,9.502,6.722,10.579l34.656,7.781c0.661,0.148,1.321,0.219,1.971,0.219c4.069,0,7.743-2.789,8.678-6.899
	C243.426,380.95,240.416,376.214,235.619,375.137z"/>
<path style="fill:#CF8F3D;" d="M413.946,393.573h18.859v48.761h-18.859c-13.466,0-24.381-10.916-24.381-24.381l0,0
	C389.565,404.489,400.481,393.573,413.946,393.573z"/>
</svg>